<?xml version="1.0" standalone="no"?>
<!DOCTYPE svg PUBLIC "-//W3C//DTD SVG 20010904//EN"
 "http://www.w3.org/TR/2001/REC-SVG-20010904/DTD/svg10.dtd">
<svg version="1.0" xmlns="http://www.w3.org/2000/svg"
 width="1024.000000pt" height="1024.000000pt" viewBox="0 0 1024.000000 1024.000000"
 preserveAspectRatio="xMidYMid meet">
<metadata>
Created by potrace 1.14, written by Peter Selinger 2001-2017
</metadata>
<g transform="translate(0.000000,1024.000000) scale(0.100000,-0.100000)"
fill="#000000" stroke="none">
<path d="M4858 10236 c-1 -2 -50 -6 -108 -10 -58 -4 -121 -9 -140 -11 -19 -2
-57 -6 -84 -9 -64 -7 -196 -25 -227 -31 -13 -3 -42 -7 -64 -10 -22 -3 -47 -7
-55 -10 -8 -2 -31 -7 -50 -10 -19 -3 -51 -10 -70 -15 -19 -5 -51 -12 -70 -15
-216 -37 -707 -202 -985 -330 -305 -141 -676 -356 -880 -509 -23 -17 -54 -40
-69 -51 -15 -11 -36 -27 -45 -35 -10 -8 -33 -26 -51 -40 -35 -26 -151 -121
-160 -130 -3 -3 -43 -38 -90 -79 -102 -90 -316 -304 -420 -421 -412 -463 -739
-1004 -960 -1585 -124 -328 -232 -743 -275 -1060 -4 -27 -8 -59 -10 -70 -1
-11 -5 -49 -9 -85 -4 -36 -9 -76 -11 -90 -26 -142 -26 -856 0 -1011 2 -13 6
-53 10 -89 3 -36 8 -74 10 -85 2 -11 7 -41 10 -67 8 -66 53 -306 76 -408 47
-203 124 -454 212 -692 88 -235 288 -637 409 -821 21 -32 38 -60 38 -62 0 -10
148 -224 236 -341 226 -301 503 -593 794 -840 196 -166 433 -336 650 -467 172
-103 184 -109 360 -197 248 -124 402 -188 665 -276 180 -60 497 -146 588 -159
23 -4 44 -8 47 -10 3 -1 25 -6 50 -9 25 -3 56 -9 70 -12 41 -8 160 -25 279
-39 30 -4 62 -8 73 -10 136 -27 837 -26 1036 1 17 2 47 6 65 8 17 3 57 8 87
11 111 12 249 36 410 71 63 14 125 27 138 30 52 11 336 96 447 133 319 110
610 245 957 446 177 102 514 344 683 490 234 203 466 438 635 645 25 30 47 57
50 60 9 8 173 230 222 300 53 76 183 283 223 355 15 28 31 55 35 60 10 12 160
313 188 375 17 38 38 88 92 215 25 59 86 230 95 265 1 3 5 12 8 20 4 8 18 53
31 100 14 47 32 106 40 131 38 121 111 475 131 634 3 28 8 57 10 65 4 14 7 42
20 165 27 252 27 857 0 1025 -2 14 -6 48 -9 75 -8 68 -25 196 -31 226 -3 13
-8 40 -11 59 -17 99 -47 252 -61 305 -8 33 -17 68 -19 78 -43 186 -162 538
-256 757 -96 222 -251 517 -364 693 -24 37 -44 70 -44 73 0 3 -4 10 -10 17 -5
7 -56 78 -113 158 -57 80 -124 172 -151 205 -26 32 -54 68 -63 79 -147 184
-433 476 -632 645 -29 25 -65 55 -80 68 -57 51 -332 253 -431 317 -58 38 -116
76 -130 85 -14 9 -45 28 -70 42 -25 14 -74 42 -110 63 -68 39 -350 182 -410
208 -19 8 -56 24 -81 35 -243 108 -606 225 -905 291 -156 34 -418 79 -509 86
-16 2 -59 6 -95 10 -36 4 -85 9 -110 11 -55 5 -647 14 -652 10z"/>
</g>
</svg>
